<?xml version="1.0" encoding="UTF-8"?>
<svg id="Layer_1" data-name="Layer 1" xmlns="http://www.w3.org/2000/svg" xmlns:xlink="http://www.w3.org/1999/xlink" viewBox="0 0 250 150">
  <defs>
    <style>
      .cls-1 {
        fill: url(#radial-gradient-2);
      }

      .cls-2 {
        fill: url(#radial-gradient);
      }

      .cls-3 {
        fill: url(#linear-gradient);
      }

      .cls-4 {
        fill: #fff;
      }

      .cls-5 {
        fill: none;
        stroke: #fff;
        stroke-miterlimit: 10;
        stroke-width: 1.5px;
      }

      .cls-6 {
        clip-path: url(#clippath);
      }
    </style>
    <clipPath id="clippath">
      <path class="cls-5" d="M249.16,75.23c-24.43,45.64-72.28,74.26-124.19,74.26S25.21,120.87.79,75.23v-.23C25.21,29.36,73.07.74,124.97.74s99.76,28.62,124.19,74.26v.23Z"/>
    </clipPath>
    <radialGradient id="radial-gradient" cx="124.97" cy="75.11" fx="124.97" fy="75.11" r="84.89" gradientUnits="userSpaceOnUse">
      <stop offset="0" stop-color="gray"/>
      <stop offset=".24" stop-color="#7c7c7c"/>
      <stop offset=".46" stop-color="#717171"/>
      <stop offset=".68" stop-color="#5e5e5e"/>
      <stop offset=".89" stop-color="#434343"/>
      <stop offset="1" stop-color="#333"/>
    </radialGradient>
    <radialGradient id="radial-gradient-2" cx="125" cy="75" fx="136.83" fy="75" r="36.14" gradientUnits="userSpaceOnUse">
      <stop offset="0" stop-color="#e6e6e6"/>
      <stop offset=".08" stop-color="#bebebe"/>
      <stop offset=".18" stop-color="#959595"/>
      <stop offset=".28" stop-color="#727272"/>
      <stop offset=".4" stop-color="#565656"/>
      <stop offset=".51" stop-color="#404040"/>
      <stop offset=".64" stop-color="#313131"/>
      <stop offset=".79" stop-color="#272727"/>
      <stop offset="1" stop-color="#252525"/>
    </radialGradient>
    <linearGradient id="linear-gradient" x1="125" y1="120.32" x2="125" y2="75.77" gradientUnits="userSpaceOnUse">
      <stop offset="0" stop-color="#000" stop-opacity="0"/>
      <stop offset=".16" stop-color="#070707" stop-opacity=".02"/>
      <stop offset=".33" stop-color="#1c1c1c" stop-opacity=".07"/>
      <stop offset=".5" stop-color="#3f3f3f" stop-opacity=".16"/>
      <stop offset=".67" stop-color="#707070" stop-opacity=".28"/>
      <stop offset=".84" stop-color="#afafaf" stop-opacity=".44"/>
      <stop offset="1" stop-color="#f2f2f2" stop-opacity=".6"/>
    </linearGradient>
  </defs>
  <g>
    <g class="cls-6">
      <g>
        <path class="cls-2" d="M124.97,160c-46.81,0-84.89-38.08-84.89-84.89S78.17-9.77,124.97-9.77s84.89,38.08,84.89,84.89-38.08,84.89-84.89,84.89Z"/>
        <path class="cls-4" d="M124.97-9.27c46.53,0,84.39,37.86,84.39,84.39s-37.86,84.39-84.39,84.39S40.59,121.64,40.59,75.11,78.44-9.27,124.97-9.27M124.97-10.27c-47.16,0-85.39,38.23-85.39,85.39s38.23,85.39,85.39,85.39,85.39-38.23,85.39-85.39S172.13-10.27,124.97-10.27h0Z"/>
      </g>
    </g>
    <path class="cls-5" d="M249.16,75.23c-24.43,45.64-72.28,74.26-124.19,74.26S25.21,120.87.79,75.23v-.23C25.21,29.36,73.07.74,124.97.74s99.76,28.62,124.19,74.26v.23Z"/>
  </g>
  <polyline class="cls-5" points=".6 30.44 .6 .74 30.29 .74"/>
  <polyline class="cls-5" points="249.23 30.46 249.23 .76 219.54 .76"/>
  <polyline class="cls-5" points=".76 119.59 .76 149.28 30.46 149.28"/>
  <polyline class="cls-5" points="249.35 119.55 249.35 149.25 219.66 149.25"/>
  <circle class="cls-1" cx="125" cy="75" r="36.14"/>
  <g>
    <rect class="cls-3" x="-.17" y="75.77" width="250.35" height="44.55"/>
    <line class="cls-5" x1="-.17" y1="75" x2="250.17" y2="75"/>
  </g>
</svg>