<?xml version="1.0" encoding="UTF-8"?>
<svg id="Layer_1" data-name="Layer 1" xmlns="http://www.w3.org/2000/svg" xmlns:xlink="http://www.w3.org/1999/xlink" viewBox="0 0 200 200">
  <defs>
    <style>
      .cls-1 {
        fill: url(#linear-gradient);
      }

      .cls-2 {
        fill: #fff;
      }

      .cls-3 {
        fill: none;
        stroke: #fff;
        stroke-miterlimit: 10;
        stroke-width: 1.5px;
      }
    </style>
    <linearGradient id="linear-gradient" x1="20.81" y1="116.01" x2="-5.58" y2="64.21" gradientTransform="translate(62.25 .05) rotate(-45)" gradientUnits="userSpaceOnUse">
      <stop offset="0" stop-color="#000" stop-opacity="0"/>
      <stop offset=".16" stop-color="#070707" stop-opacity=".02"/>
      <stop offset=".33" stop-color="#1c1c1c" stop-opacity=".07"/>
      <stop offset=".51" stop-color="#3f3f3f" stop-opacity=".17"/>
      <stop offset=".69" stop-color="#707070" stop-opacity=".29"/>
      <stop offset=".87" stop-color="#afafaf" stop-opacity=".46"/>
      <stop offset="1" stop-color="#e6e6e6" stop-opacity=".6"/>
    </linearGradient>
  </defs>
  <path class="cls-1" d="M100,.75c34.53.03,68.1,17.96,86.6,50.01l-86.6,50V.75Z"/>
  <line class="cls-3" x1="100" y1=".76" x2="100" y2="100.76"/>
  <path class="cls-2" d="M100,1.5c54.31,0,98.5,44.19,98.5,98.5s-44.19,98.5-98.5,98.5S1.5,154.31,1.5,100,45.69,1.5,100,1.5M100,0C44.77,0,0,44.77,0,100s44.77,100,100,100,100-44.77,100-100S155.23,0,100,0h0Z"/>
  <path class="cls-2" d="M100,59.34c22.43,0,40.68,18.25,40.68,40.68s-18.25,40.68-40.68,40.68-40.68-18.25-40.68-40.68,18.25-40.68,40.68-40.68M100,57.84c-23.3,0-42.18,18.89-42.18,42.18s18.89,42.18,42.18,42.18,42.18-18.89,42.18-42.18-18.89-42.18-42.18-42.18h0Z"/>
  <polyline class="cls-3" points=".73 30.45 .73 .75 30.42 .75"/>
  <polyline class="cls-3" points="199.24 30.44 199.24 .75 169.55 .75"/>
  <line class="cls-3" x1="100" y1="0" x2="100" y2="200"/>
  <line class="cls-3" x1="0" y1="100.02" x2="200" y2="100.02"/>
  <polyline class="cls-3" points=".74 169.55 .74 199.25 30.44 199.25"/>
  <polyline class="cls-3" points="199.26 169.56 199.26 199.25 169.56 199.25"/>
</svg>